<svg width="31" height="32" viewBox="0 0 31 32" fill="none" xmlns="http://www.w3.org/2000/svg">
<path d="M10.0104 2.66663V6.66663H9.04169C8.70585 6.66663 8.38294 6.67996 8.07294 6.73329V2.66663C8.07294 2.11996 8.5121 1.66663 9.04169 1.66663C9.57127 1.66663 10.0104 2.11996 10.0104 2.66663Z" fill="#202020"/>
<path d="M21.9583 6.66663H9.04165C8.70581 6.66663 8.3829 6.67996 8.0729 6.73329C4.7404 7.13329 2.58331 9.67996 2.58331 13.3333V22.6666C2.58331 26.6666 5.16665 29.3333 9.04165 29.3333H21.9583C25.8333 29.3333 28.4166 26.6666 28.4166 22.6666V13.3333C28.4166 9.33329 25.8333 6.66663 21.9583 6.66663ZM10.1783 21.3333C8.39581 21.3333 6.94915 19.84 6.94915 18C6.94915 16.16 8.39581 14.6666 10.1783 14.6666C11.9608 14.6666 13.4075 16.16 13.4075 18C13.4075 19.84 11.9608 21.3333 10.1783 21.3333ZM18.5741 21.6666H17.9283C17.3987 21.6666 16.9596 21.2133 16.9596 20.6666C16.9596 20.12 17.3987 19.6666 17.9283 19.6666H18.5741C19.1037 19.6666 19.5429 20.12 19.5429 20.6666C19.5429 21.2133 19.1037 21.6666 18.5741 21.6666ZM23.095 21.6666H22.4491C21.9196 21.6666 21.4804 21.2133 21.4804 20.6666C21.4804 20.12 21.9196 19.6666 22.4491 19.6666H23.095C23.6246 19.6666 24.0637 20.12 24.0637 20.6666C24.0637 21.2133 23.6246 21.6666 23.095 21.6666ZM23.095 16.3333H17.9283C17.3987 16.3333 16.9596 15.88 16.9596 15.3333C16.9596 14.7866 17.3987 14.3333 17.9283 14.3333H23.095C23.6246 14.3333 24.0637 14.7866 24.0637 15.3333C24.0637 15.88 23.6246 16.3333 23.095 16.3333Z" fill="#202020"/>
</svg>
