<svg width="32" height="32" viewBox="0 0 32 32" fill="none" xmlns="http://www.w3.org/2000/svg">
<path d="M2.37585 15.5544C2.1001 15.3954 1.74741 15.4897 1.58835 15.7655C1.16035 16.5068 0.812408 17.2359 0.554096 17.9325C0.443346 18.2311 0.595596 18.5628 0.894158 18.6735C0.960283 18.6981 1.02791 18.7097 1.09447 18.7097C1.32866 18.7097 1.54897 18.566 1.63522 18.3334C1.87097 17.6973 2.19122 17.0273 2.58685 16.342C2.74603 16.0662 2.6516 15.7137 2.37585 15.5544Z" fill="#202020"/>
<path d="M20.2334 11.1728C19.991 10.9663 19.6274 10.9958 19.4207 11.2382C18.9492 11.7926 18.5014 12.439 18.0518 13.2145C17.8922 13.49 17.986 13.8427 18.2615 14.0024C18.3526 14.0552 18.452 14.0802 18.5501 14.0802C18.749 14.0802 18.9425 13.9772 19.0495 13.7927C19.4639 13.0777 19.8726 12.4865 20.299 11.9855C20.5054 11.743 20.4759 11.3792 20.2334 11.1728Z" fill="#202020"/>
<path d="M21.1665 3.3003C21.1123 2.98643 20.8137 2.77587 20.5003 2.83037C19.7365 2.96224 18.9612 3.13593 18.1962 3.34649C17.8892 3.43093 17.7089 3.74824 17.7934 4.0553C17.8638 4.31105 18.0959 4.47899 18.349 4.47899C18.3995 4.47899 18.451 4.4723 18.5022 4.45818C19.2312 4.25755 19.9695 4.09218 20.6965 3.96655C21.0103 3.9123 21.2207 3.61405 21.1665 3.3003Z" fill="#202020"/>
<path d="M17.742 15.0306C17.4525 14.8982 17.1103 15.0257 16.978 15.3155C16.6808 15.9662 16.3763 16.6915 16.0733 17.471C15.9578 17.7678 16.1048 18.102 16.4015 18.2172C16.4702 18.244 16.5409 18.2566 16.6104 18.2566C16.8412 18.2566 17.0591 18.117 17.1478 17.889C17.4431 17.13 17.7388 16.4253 18.0269 15.7946C18.1592 15.5048 18.0316 15.1628 17.742 15.0306Z" fill="#202020"/>
<path d="M14.5172 23.6633C14.2272 23.5334 13.8857 23.6634 13.7555 23.9541C13.4313 24.6783 13.0749 25.3267 12.696 25.8812C12.5164 26.1441 12.5838 26.5029 12.8468 26.6825C12.9463 26.7505 13.0595 26.783 13.1715 26.783C13.3557 26.783 13.5365 26.6952 13.6481 26.5317C14.0656 25.9207 14.4558 25.2119 14.808 24.4251C14.9381 24.1344 14.8079 23.7934 14.5172 23.6633Z" fill="#202020"/>
<path d="M12.4928 6.30283C12.3335 6.02702 11.9809 5.9327 11.7052 6.09189C11.0334 6.47995 10.3643 6.90164 9.71651 7.3452C9.4537 7.52508 9.38657 7.88389 9.56645 8.14658C9.6782 8.3097 9.85895 8.39745 10.0428 8.39745C10.1549 8.39745 10.2684 8.3647 10.3679 8.29652C10.9916 7.86952 11.6355 7.4637 12.2819 7.09033C12.5578 6.93114 12.652 6.57852 12.4928 6.30283Z" fill="#202020"/>
<path d="M16.0063 19.2995C15.7055 19.195 15.377 19.3545 15.2728 19.6553C15.0349 20.3412 14.789 21.082 14.542 21.8568C14.4452 22.1603 14.6127 22.4846 14.916 22.5813C14.9742 22.5998 15.0333 22.6087 15.0913 22.6087C15.3355 22.6087 15.5623 22.4523 15.6404 22.2073C15.8848 21.4415 16.1275 20.71 16.3622 20.0331C16.4665 19.7322 16.3072 19.4038 16.0063 19.2995Z" fill="#202020"/>
<path d="M31.5348 5.85182C31.4053 5.56076 31.0713 5.43013 30.7808 5.55938C30.4899 5.68888 30.3484 6.02963 30.4779 6.32051C30.7297 6.8867 30.847 7.55657 30.847 8.3117V8.33345C30.847 8.65182 31.1051 8.90995 31.4235 8.90995C31.7419 8.90995 32 8.65182 32 8.33345V8.3117C32 7.39407 31.8527 6.56645 31.5348 5.85182Z" fill="#202020"/>
<path d="M31.2856 10.0553C30.9761 9.98064 30.6646 10.1709 30.5898 10.4802C30.4288 11.146 30.1987 11.8586 29.9056 12.5981C29.7884 12.8941 29.9332 13.2291 30.2292 13.3465C30.2989 13.374 30.3708 13.3871 30.4414 13.3871C30.6709 13.3871 30.8879 13.2491 30.9775 13.0229C31.2903 12.2335 31.5369 11.4691 31.7104 10.7511C31.7854 10.4416 31.5951 10.1301 31.2856 10.0553Z" fill="#202020"/>
<path d="M24.3368 9.34091C24.302 9.02441 24.016 8.79716 23.7007 8.83097C22.8183 8.92809 22.0332 9.18453 21.3 9.61491C21.0254 9.77616 20.9335 10.1294 21.0948 10.404C21.2022 10.5868 21.3948 10.6887 21.5925 10.6887C21.6916 10.6887 21.7921 10.6631 21.8839 10.6093C22.474 10.2629 23.1094 10.0561 23.8268 9.97716C24.1433 9.94228 24.3717 9.65747 24.3368 9.34091Z" fill="#202020"/>
<path d="M29.4635 16.1531C29.6243 15.8709 29.8047 15.5419 29.9945 15.174C30.1404 14.891 30.0293 14.5433 29.7463 14.3973C29.464 14.2516 29.1158 14.3622 28.9698 14.6454C28.6256 15.3129 28.3093 15.8529 28.1009 16.1937C23.1463 19.7827 24.8534 23.3574 24.9308 23.5126C25.0725 23.7956 25.4144 23.9093 25.6987 23.7702C25.983 23.6312 26.101 23.2866 25.9643 23.0012C25.9091 22.8859 24.75 20.3376 28.3048 17.4878C28.3127 17.4881 28.3208 17.4895 28.3286 17.4895C28.4748 17.4895 28.6185 17.4331 28.7274 17.3285C29.1266 18.3668 29.675 20.4811 28.9278 23.0964C28.8402 23.4025 29.0176 23.7216 29.3237 23.809C29.3766 23.8242 29.4298 23.8314 29.4823 23.8314C29.7331 23.8314 29.9639 23.6662 30.0363 23.4131C31.1296 19.5871 29.7851 16.7512 29.4635 16.1531Z" fill="#202020"/>
<path d="M29.8984 3.86562C29.2718 3.42637 28.5017 3.08893 27.6096 2.86262C27.3009 2.78449 26.9873 2.9713 26.9091 3.27974C26.8308 3.58837 27.0174 3.90199 27.3261 3.9803C28.0822 4.17205 28.7251 4.45112 29.2367 4.80974C29.3375 4.8803 29.4527 4.91424 29.5671 4.91424C29.7487 4.91424 29.9276 4.82862 30.0397 4.66855C30.2224 4.40787 30.1591 4.0483 29.8984 3.86562Z" fill="#202020"/>
<path d="M1.50925 22.4345C1.38456 22.087 1.28769 21.743 1.22144 21.4121C1.17612 21.1849 1.15306 20.9386 1.15306 20.681C1.15319 20.5907 1.156 20.4987 1.16138 20.4057C1.17981 20.0878 0.937125 19.8151 0.619313 19.7967C0.29925 19.7757 0.02875 20.0209 0.01025 20.3387C0.003625 20.4533 0.000125 20.5679 0 20.6802C0 21.0144 0.0305625 21.3368 0.0909375 21.6383C0.168187 22.0245 0.28025 22.4235 0.424125 22.8241C0.508563 23.0594 0.73025 23.206 0.96675 23.206C1.03138 23.206 1.09719 23.195 1.16156 23.1719C1.46112 23.0644 1.61681 22.7342 1.50925 22.4345Z" fill="#202020"/>
<path d="M16.6964 4.41253C16.5846 4.11453 16.2522 3.96359 15.954 4.07553C15.2297 4.34753 14.5007 4.65759 13.7872 4.99696C13.4996 5.13378 13.3773 5.47772 13.5141 5.76528C13.6129 5.9729 13.8197 6.09428 14.0352 6.09428C14.118 6.09428 14.2024 6.07628 14.2824 6.03828C14.9667 5.71278 15.6655 5.41559 16.3594 5.15497C16.6575 5.04297 16.8084 4.71059 16.6964 4.41253Z" fill="#202020"/>
<path d="M5.21598 11.9238C4.97979 11.7104 4.61542 11.7284 4.40161 11.9647C3.86111 12.5623 3.35579 13.1751 2.89967 13.7863C2.70923 14.0415 2.76173 14.4028 3.01692 14.5932C3.12048 14.6704 3.24142 14.7077 3.36136 14.7077C3.53704 14.7077 3.71054 14.6277 3.82386 14.476C4.25836 13.8937 4.74042 13.309 5.25686 12.7381C5.47029 12.502 5.45198 12.1374 5.21598 11.9238Z" fill="#202020"/>
<path d="M28.4622 9.43347C27.577 9.19247 26.8202 9.0251 26.1484 8.92154C25.8335 8.87229 25.5393 9.08879 25.4908 9.40347C25.4423 9.71822 25.658 10.0126 25.9728 10.061C26.6012 10.158 27.3165 10.3165 28.1593 10.5459C28.21 10.5597 28.261 10.5663 28.3111 10.5663C28.5648 10.5663 28.7972 10.3977 28.867 10.1412C28.9506 9.83391 28.7695 9.51704 28.4622 9.43347Z" fill="#202020"/>
<path d="M12.0823 27.5494C11.8835 27.3011 11.5208 27.2607 11.2718 27.4596C10.7053 27.9131 10.0947 28.2164 9.45725 28.361C9.14675 28.4315 8.95207 28.7403 9.02244 29.0508C9.08325 29.3183 9.321 29.4999 9.58419 29.4999C9.62644 29.4999 9.66932 29.4953 9.71225 29.4855C10.5213 29.302 11.2884 28.9232 11.9924 28.3598C12.241 28.1608 12.2811 27.7981 12.0823 27.5494Z" fill="#202020"/>
<path d="M25.2197 2.52337C24.4767 2.4848 23.6507 2.49493 22.848 2.54849C22.5302 2.56968 22.29 2.84443 22.3111 3.16212C22.3314 3.46674 22.5849 3.70024 22.8858 3.70024C22.8986 3.70024 22.9117 3.6998 22.9246 3.69899C23.6825 3.6483 24.4623 3.63868 25.16 3.67487C25.4799 3.69193 25.7492 3.44687 25.7657 3.12899C25.7822 2.81093 25.5377 2.5398 25.2197 2.52337Z" fill="#202020"/>
<path d="M8.6392 8.83471C8.44001 8.58634 8.0772 8.54646 7.82876 8.74577C7.21551 9.23765 6.61789 9.75596 6.0522 10.2862C5.81995 10.504 5.80826 10.8688 6.02601 11.1011C6.13945 11.2221 6.29289 11.2833 6.4467 11.2833C6.58801 11.2833 6.72957 11.2316 6.84095 11.1273C7.38495 10.6173 7.96007 10.1186 8.55026 9.64515C8.7987 9.4459 8.83851 9.08302 8.6392 8.83471Z" fill="#202020"/>
<path d="M7.43817 28.3237C6.79954 28.1678 6.15098 27.8816 5.51029 27.473C5.24186 27.3017 4.88523 27.381 4.71417 27.6492C4.54304 27.9177 4.62186 28.274 4.89042 28.4454C5.63792 28.9219 6.40304 29.2579 7.16454 29.4439C7.21061 29.4551 7.25661 29.4605 7.30179 29.4605C7.56136 29.4605 7.79711 29.284 7.86142 29.0207C7.93698 28.7112 7.74736 28.3992 7.43817 28.3237Z" fill="#202020"/>
<path d="M3.83716 26.0942C3.33129 25.573 2.87429 24.9959 2.47891 24.379C2.30691 24.1107 1.95041 24.0329 1.68241 24.2046C1.41429 24.3765 1.33629 24.7331 1.50804 25.0011C1.9451 25.6829 2.45035 26.3209 3.00985 26.8973C3.12285 27.0137 3.27316 27.0722 3.42354 27.0722C3.56823 27.0722 3.71304 27.018 3.8251 26.9094C4.05348 26.6875 4.05898 26.3226 3.83716 26.0942Z" fill="#202020"/>
</svg>
